<svg xmlns="http://www.w3.org/2000/svg" viewBox="0 0 256 256" role="img" aria-labelledby="title desc">
  <title id="title">FlareAuth logo</title>
  <desc id="desc">A FlareAuth Fa monogram wrapped by a rotating orange and charcoal flare mark.</desc>
  <defs>
    <linearGradient id="flare" x1="142" y1="45" x2="220" y2="116" gradientUnits="userSpaceOnUse">
      <stop offset="0" stop-color="#FBB040" />
      <stop offset="0.52" stop-color="#F6821F" />
      <stop offset="1" stop-color="#F04E23" />
    </linearGradient>
    <linearGradient id="ink" x1="42" y1="42" x2="210" y2="218" gradientUnits="userSpaceOnUse">
      <stop offset="0" stop-color="#0B121A" />
      <stop offset="1" stop-color="#1B2934" />
    </linearGradient>
  </defs>

  <path
    d="M46 128c0-47 37-86 85-88-31 9-55 33-64 64-6 21-4 42 4 61-16-8-25-20-25-37Z"
    fill="url(#ink)"
  />
  <path
    d="M135 43c45 4 80 40 83 85-9-28-32-50-61-58-18-5-37-4-54 2 8-16 19-26 32-29Z"
    fill="url(#flare)"
  />
  <path
    d="M210 129c0 46-37 84-84 87 30-10 53-34 62-64 6-20 4-41-4-60 17 8 26 20 26 37Z"
    fill="url(#ink)"
  />
  <path
    d="M122 213c-44-4-79-39-84-83 10 27 32 48 61 56 19 5 38 4 55-3-8 17-19 27-32 30Z"
    fill="url(#ink)"
  />

  <g font-family="Inter, ui-sans-serif, system-ui, -apple-system, BlinkMacSystemFont, 'Segoe UI', sans-serif" font-weight="850">
    <text x="70" y="154" fill="#F6821F" font-size="88">F</text>
    <text x="123" y="154" fill="#101820" font-size="78">a</text>
  </g>
</svg>
